<?xml version="1.0" encoding="utf-8"?>
<!-- Generator: Adobe Illustrator 21.1.0, SVG Export Plug-In . SVG Version: 6.00 Build 0)  -->
<svg version="1.1" id="Layer_1" xmlns="http://www.w3.org/2000/svg" xmlns:xlink="http://www.w3.org/1999/xlink" x="0px" y="0px"
	 width="96px" height="96px" viewBox="0 0 96 96" style="enable-background:new 0 0 96 96;" xml:space="preserve">
<title>insurance-policy-icon</title>
<g>
	
		<line style="fill:none;stroke:#263950;stroke-width:1.96;stroke-linecap:round;stroke-linejoin:round;" x1="26.4" y1="46.6" x2="69.6" y2="46.6"/>
	<polygon style="fill:#263950;" points="47.6,21.7 47.6,30.3 50.5,27.4 51.1,28 47.1,32 43.1,28 43.8,27.4 46.7,30.3 46.7,21.7 
		39.2,21.7 39.2,37.7 55.1,37.7 55.1,21.7 	"/>
	<rect x="46.7" y="17.5" style="fill:#263950;" width="0.8" height="4.2"/>
	<g>
		<path style="fill:#263950;" d="M36.9,57.7c0.1,0.9-0.3,1.8-1,2.3c-0.9,0.6-1.9,0.9-3,0.8h-1.2v3.9h-1.2v-10h2.6
			C35.7,54.8,36.9,55.8,36.9,57.7z M31.8,59.9h1c0.8,0,1.5-0.1,2.2-0.5c0.5-0.4,0.7-1,0.7-1.6c0-0.6-0.2-1.1-0.6-1.5
			c-0.6-0.4-1.3-0.5-2-0.5h-1.3L31.8,59.9z"/>
		<path style="fill:#263950;" d="M45.3,61.1c0.1,1-0.3,2.1-0.9,2.9c-0.6,0.7-1.6,1.1-2.5,1c-0.6,0-1.3-0.2-1.8-0.5
			c-0.5-0.3-0.9-0.8-1.2-1.4c-0.3-0.7-0.4-1.4-0.4-2.1c-0.1-1,0.3-2.1,0.9-2.9c1.4-1.3,3.6-1.3,5,0C45,59,45.4,60,45.3,61.1z
			 M39.6,61.1c-0.1,0.8,0.2,1.6,0.6,2.2c0.4,0.5,1,0.8,1.7,0.8c0.6,0.1,1.3-0.2,1.7-0.7c0.8-1.4,0.8-3,0-4.4c-0.9-0.9-2.5-0.9-3.4,0
			c0,0,0,0,0,0C39.8,59.6,39.5,60.4,39.6,61.1z"/>
		<path style="fill:#263950;" d="M48.4,64.8h-1.1V54.2h1.1L48.4,64.8z"/>
		<path style="fill:#263950;" d="M50.8,55.3c0-0.2,0.1-0.4,0.2-0.6l0.5-0.2l0.5,0.2c0.1,0.2,0.2,0.4,0.2,0.6c0,0.2-0.1,0.4-0.2,0.6
			h-0.6l-0.5-0.2C50.8,55.6,50.8,55.4,50.8,55.3z M52,64.8h-1.1v-7.5H52V64.8z"/>
		<path style="fill:#263950;" d="M57.4,64.9c-0.9,0.1-1.9-0.3-2.5-1c-0.6-0.8-1-1.8-0.9-2.8c-0.1-1,0.2-2.1,0.9-2.9
			c0.7-0.7,1.6-1.1,2.6-1h1.1l0.8,0.3l-0.3,1l-0.8-0.3h-0.8c-1.5,0-2.3,1-2.3,2.9c0,0.7,0.2,1.5,0.6,2.1c0.4,0.5,1.1,0.8,1.7,0.7
			c0.7,0,1.3-0.1,1.9-0.4v1C58.8,64.8,58.1,64.9,57.4,64.9z"/>
		<path style="fill:#263950;" d="M59.9,57.3h1.2l1.6,4.3c0.3,0.7,0.5,1.4,0.7,2.1h0.1l0.4-1.2c0.2-0.6,0.8-2.3,1.9-5.2H67l-3.2,8.5
			c-0.2,0.7-0.6,1.3-1.1,1.8c-0.4,0.4-1,0.6-1.6,0.5h-1v-0.9h0.8c0.8,0,1.3-0.4,1.7-1.3l0.4-1.1L59.9,57.3z"/>
	</g>
	<path style="fill:#263950;" d="M77.8,23.4L65,9.8l-0.3-0.2H18.9c-0.3,0-0.5,0.1-0.7,0.3c-0.2,0.2-0.3,0.4-0.3,0.7v74.8
		c0,0.6,0.4,1,1,1h58.2c0.3,0,0.5-0.1,0.7-0.3c0.2-0.2,0.3-0.4,0.3-0.7V24.1C78.1,23.8,78,23.6,77.8,23.4z M65.3,13.1l9.5,10.3h-9.5
		V13.1z M19.9,11.5h43.5v12.9c0,0.6,0.4,1,1,1h11.8v49.8H19.9V11.5z M76.1,84.4H19.9v-7h56.3L76.1,84.4L76.1,84.4z"/>
</g>
</svg>
