<?xml version="1.0" encoding="utf-8"?>
<!-- Generator: Adobe Illustrator 21.1.0, SVG Export Plug-In . SVG Version: 6.00 Build 0)  -->
<svg version="1.1" id="Layer_1" xmlns="http://www.w3.org/2000/svg" xmlns:xlink="http://www.w3.org/1999/xlink" x="0px" y="0px"
	 width="96px" height="96px" viewBox="0 0 96 96" style="enable-background:new 0 0 96 96;" xml:space="preserve">
<g>
	<linearGradient id="SVGID_1_" gradientUnits="userSpaceOnUse" x1="12.5" y1="48" x2="83.5" y2="48">
		<stop  offset="0" style="stop-color:#29ABE2"/>
		<stop  offset="1" style="stop-color:#0071BC"/>
	</linearGradient>
	<circle style="fill:#FFFFFF;stroke:url(#SVGID_1_);stroke-miterlimit:10;" cx="48" cy="48" r="35"/>
	<g>
		<g>
			<linearGradient id="SVGID_2_" gradientUnits="userSpaceOnUse" x1="27.9188" y1="49.2823" x2="68.0812" y2="49.2823">
				<stop  offset="0" style="stop-color:#29ABE2"/>
				<stop  offset="1" style="stop-color:#0071BC"/>
			</linearGradient>
			<path style="fill-rule:evenodd;clip-rule:evenodd;fill:url(#SVGID_2_);" d="M31.9,36.6h32.2c2.2,0,4,1.8,4,4V58c0,2.2-1.8,4-4,4
				H31.9c-2.2,0-4-1.8-4-4V40.6C27.9,38.4,29.7,36.6,31.9,36.6z"/>
		</g>
		<g>
			<rect x="42.2" y="41" style="fill-rule:evenodd;clip-rule:evenodd;fill:#FFFFFF;" width="11.7" height="1.2"/>
			<g>
				<g>
					<g>
						<g>
							<path style="fill:#FFFFFF;" d="M39,49.5c-0.9,0-1.7-0.8-1.7-1.7c0-0.9,0.8-1.7,1.7-1.7c0.9,0,1.7,0.8,1.7,1.7
								C40.7,48.7,39.9,49.5,39,49.5z M39,46.5c-0.7,0-1.2,0.6-1.2,1.2S38.3,49,39,49s1.2-0.6,1.2-1.2C40.2,47.1,39.7,46.5,39,46.5z
								"/>
							<path style="fill:#FFFFFF;" d="M39.2,52.9C39.2,52.9,39.2,52.9,39.2,52.9l-2.9,0c-0.1,0-0.2-0.1-0.2-0.2c0-0.7,0.3-1.4,0.8-2
								c0.5-0.5,1.3-0.8,2-0.8c0.4,0,0.7,0.1,1,0.2c0.1,0,0.2,0.2,0.1,0.3c0,0.1-0.2,0.2-0.3,0.1c-0.3-0.1-0.6-0.1-0.9-0.1
								c-0.7,0-1.3,0.2-1.7,0.7c-0.4,0.4-0.6,0.9-0.7,1.4l2.7,0c0.1,0,0.2,0.1,0.2,0.2C39.4,52.8,39.3,52.9,39.2,52.9z"/>
							<path style="fill:#FFFFFF;" d="M38.9,52.9C38.9,52.9,38.9,52.9,38.9,52.9l2.9,0c0.1,0,0.2-0.1,0.2-0.2c0-0.7-0.3-1.4-0.8-2
								c-0.5-0.5-1.3-0.8-2-0.8c-0.4,0-0.7,0.1-1,0.2c-0.1,0-0.2,0.2-0.1,0.3c0,0.1,0.2,0.2,0.3,0.1c0.3-0.1,0.6-0.1,0.9-0.1
								c0.7,0,1.3,0.2,1.7,0.7c0.4,0.4,0.6,0.9,0.7,1.4l-2.7,0c-0.1,0-0.2,0.1-0.2,0.2C38.7,52.8,38.8,52.9,38.9,52.9z"/>
						</g>
						<rect x="32.1" y="45.1" style="fill:none;stroke:#FFFFFF;stroke-width:0.35;stroke-miterlimit:10;" width="14" height="8.8"/>
					</g>
					<g>
						<path style="fill:#FFFFFF;" d="M63.7,45H50.4c-0.2,0-0.3,0.1-0.3,0.2s0.1,0.2,0.3,0.2h13.4c0.2,0,0.3-0.1,0.3-0.2
							S63.9,45,63.7,45z"/>
						<path style="fill:#FFFFFF;" d="M63.7,47.8H50.4c-0.2,0-0.3,0.1-0.3,0.2s0.1,0.2,0.3,0.2h13.4c0.2,0,0.3-0.1,0.3-0.2
							S63.9,47.8,63.7,47.8z"/>
						<path style="fill:#FFFFFF;" d="M63.7,50.6H50.4c-0.2,0-0.3,0.1-0.3,0.2s0.1,0.2,0.3,0.2h13.4c0.2,0,0.3-0.1,0.3-0.2
							S63.9,50.6,63.7,50.6z"/>
						<path style="fill:#FFFFFF;" d="M63.7,53.4H50.4c-0.2,0-0.3,0.1-0.3,0.2c0,0.1,0.1,0.2,0.3,0.2h13.4c0.2,0,0.3-0.1,0.3-0.2
							C64,53.5,63.9,53.4,63.7,53.4z"/>
					</g>
				</g>
				<path style="fill:#FFFFFF;" d="M63.5,56.7H32.5c-0.4,0-0.7,0.2-0.7,0.4s0.3,0.4,0.7,0.4h31.1c0.4,0,0.7-0.2,0.7-0.4
					S63.9,56.7,63.5,56.7z"/>
			</g>
		</g>
		<path style="fill:#FFFFFF;stroke:#29ABE2;stroke-width:0.525;stroke-miterlimit:10;" d="M43.8,36.8c0-0.6,0.5-1.2,1.2-1.2h0.9
			c0.3-1.1,1.5-1.8,2.6-1.5c0.7,0.2,1.3,0.8,1.5,1.5h0.9c0.6,0,1.2,0.5,1.2,1.2v2h-8.2V36.8z"/>
	</g>
</g>
</svg>
