<?xml version="1.0" encoding="utf-8"?>
<!-- Generator: Adobe Illustrator 21.1.0, SVG Export Plug-In . SVG Version: 6.00 Build 0)  -->
<svg version="1.1" id="Layer_1" xmlns="http://www.w3.org/2000/svg" xmlns:xlink="http://www.w3.org/1999/xlink" x="0px" y="0px"
	 width="96px" height="96px" viewBox="0 0 96 96" style="enable-background:new 0 0 96 96;" xml:space="preserve">
<g>
	<linearGradient id="SVGID_1_" gradientUnits="userSpaceOnUse" x1="12.5" y1="48" x2="83.5" y2="48">
		<stop  offset="0" style="stop-color:#29ABE2"/>
		<stop  offset="1" style="stop-color:#0071BC"/>
	</linearGradient>
	<circle style="fill:#FFFFFF;stroke:url(#SVGID_1_);stroke-miterlimit:10;" cx="48" cy="48" r="35"/>
	<g>
		<g>
			<linearGradient id="SVGID_2_" gradientUnits="userSpaceOnUse" x1="35.2649" y1="48" x2="60.7351" y2="48">
				<stop  offset="1.006390e-07" style="stop-color:#25A9E0"/>
				<stop  offset="1" style="stop-color:#1B75BB"/>
			</linearGradient>
			<path style="fill:url(#SVGID_2_);" d="M58.4,31.6H37.6c-1.6,0-2.3,0.7-2.3,2.3v28.1c0,1.6,0.7,2.3,2.3,2.3h20.9
				c1.6,0,2.3-0.7,2.3-2.3V33.9C60.7,32.4,60,31.6,58.4,31.6z M56.6,60.2H39.2V36h17.4V60.2z"/>
			<circle style="fill:#FFFFFF;" cx="48.5" cy="62.7" r="0.9"/>
			<g>
				<linearGradient id="SVGID_3_" gradientUnits="userSpaceOnUse" x1="47.9568" y1="62.7687" x2="49.0163" y2="62.7687">
					<stop  offset="1.006390e-07" style="stop-color:#25A9E0"/>
					<stop  offset="1" style="stop-color:#1B75BB"/>
				</linearGradient>
				<path style="fill:url(#SVGID_3_);" d="M48.7,62.3v0.2c0.1,0.1,0.1,0.1,0.1,0.2c0,0.2-0.2,0.3-0.3,0.3c-0.2,0-0.3-0.2-0.3-0.3
					c0-0.1,0-0.2,0.1-0.2v-0.2c-0.2,0.1-0.3,0.3-0.3,0.5c0,0.3,0.2,0.5,0.5,0.5c0.3,0,0.5-0.2,0.5-0.5C49,62.5,48.9,62.4,48.7,62.3z
					"/>
				<linearGradient id="SVGID_4_" gradientUnits="userSpaceOnUse" x1="48.3968" y1="62.383" x2="48.5784" y2="62.383">
					<stop  offset="1.006390e-07" style="stop-color:#25A9E0"/>
					<stop  offset="1" style="stop-color:#1B75BB"/>
				</linearGradient>
				<rect x="48.4" y="62" style="fill:url(#SVGID_4_);" width="0.2" height="0.7"/>
			</g>
		</g>
		<linearGradient id="SVGID_5_" gradientUnits="userSpaceOnUse" x1="40.883" y1="50.0482" x2="55.117" y2="50.0482">
			<stop  offset="1.006390e-07" style="stop-color:#25A9E0"/>
			<stop  offset="1" style="stop-color:#1B75BB"/>
		</linearGradient>
		<path style="fill:url(#SVGID_5_);" d="M54.8,49.7H41.2c-0.2,0-0.3,0.1-0.3,0.3c0,0.2,0.1,0.3,0.3,0.3h13.6c0.2,0,0.3-0.1,0.3-0.3
			C55.1,49.9,55,49.7,54.8,49.7z"/>
		<g>
			<linearGradient id="SVGID_6_" gradientUnits="userSpaceOnUse" x1="46.0672" y1="40.7178" x2="49.471" y2="40.7178">
				<stop  offset="1.006390e-07" style="stop-color:#25A9E0"/>
				<stop  offset="1" style="stop-color:#1B75BB"/>
			</linearGradient>
			<path style="fill:url(#SVGID_6_);" d="M47.8,42.4c-0.9,0-1.7-0.8-1.7-1.7s0.8-1.7,1.7-1.7c0.9,0,1.7,0.8,1.7,1.7
				S48.7,42.4,47.8,42.4z M47.8,39.5c-0.7,0-1.2,0.6-1.2,1.2s0.6,1.2,1.2,1.2c0.7,0,1.2-0.6,1.2-1.2S48.5,39.5,47.8,39.5z"/>
			<linearGradient id="SVGID_7_" gradientUnits="userSpaceOnUse" x1="44.8479" y1="44.373" x2="48.9451" y2="44.373">
				<stop  offset="1.006390e-07" style="stop-color:#25A9E0"/>
				<stop  offset="1" style="stop-color:#1B75BB"/>
			</linearGradient>
			<path style="fill:url(#SVGID_7_);" d="M48,45.9C48,45.9,48,45.9,48,45.9l-2.9,0c-0.1,0-0.2-0.1-0.2-0.2c0-0.7,0.3-1.4,0.9-2
				c0.6-0.5,1.3-0.8,2.1-0.8c0.4,0,0.7,0.1,1,0.2c0.1,0,0.2,0.2,0.1,0.3c0,0.1-0.2,0.2-0.3,0.1c-0.3-0.1-0.6-0.1-0.9-0.1
				c-0.7,0-1.3,0.3-1.7,0.7c-0.4,0.4-0.7,0.9-0.7,1.4l2.7,0c0.1,0,0.2,0.1,0.2,0.2C48.2,45.8,48.1,45.9,48,45.9z"/>
			<linearGradient id="SVGID_8_" gradientUnits="userSpaceOnUse" x1="46.753" y1="44.373" x2="50.8502" y2="44.373">
				<stop  offset="1.006390e-07" style="stop-color:#25A9E0"/>
				<stop  offset="1" style="stop-color:#1B75BB"/>
			</linearGradient>
			<path style="fill:url(#SVGID_8_);" d="M47.7,45.9C47.7,45.9,47.7,45.9,47.7,45.9l2.9,0c0.1,0,0.2-0.1,0.2-0.2
				c0-0.7-0.3-1.4-0.9-2c-0.6-0.5-1.3-0.8-2.1-0.8c-0.4,0-0.7,0.1-1,0.2c-0.1,0-0.2,0.2-0.1,0.3c0,0.1,0.2,0.2,0.3,0.1
				c0.3-0.1,0.6-0.1,0.9-0.1c0.7,0,1.3,0.3,1.7,0.7c0.4,0.4,0.7,0.9,0.7,1.4l-2.7,0c-0.1,0-0.2,0.1-0.2,0.2
				C47.5,45.8,47.6,45.9,47.7,45.9z"/>
		</g>
		<linearGradient id="SVGID_9_" gradientUnits="userSpaceOnUse" x1="42.7977" y1="42.624" x2="52.9004" y2="42.624">
			<stop  offset="1.006390e-07" style="stop-color:#25A9E0"/>
			<stop  offset="1" style="stop-color:#1B75BB"/>
		</linearGradient>
		
			<rect x="42.9" y="37.9" style="fill:none;stroke:url(#SVGID_9_);stroke-width:0.3027;stroke-miterlimit:10;" width="9.8" height="9.3"/>
		<text transform="matrix(1 0 0 1 44.2287 57.3701)" style="fill:#1B75BB; font-family:'OpenSans-Semibold'; font-size:5.88px;">I D</text>
	</g>
</g>
</svg>
