<?xml version="1.0" encoding="utf-8"?>
<!-- Generator: Adobe Illustrator 21.1.0, SVG Export Plug-In . SVG Version: 6.00 Build 0)  -->
<svg version="1.1" id="Layer_1" xmlns="http://www.w3.org/2000/svg" xmlns:xlink="http://www.w3.org/1999/xlink" x="0px" y="0px"
	 width="96px" height="96px" viewBox="0 0 96 96" style="enable-background:new 0 0 96 96;" xml:space="preserve">
<g>
	<linearGradient id="SVGID_1_" gradientUnits="userSpaceOnUse" x1="12.5" y1="48" x2="83.5" y2="48">
		<stop  offset="0" style="stop-color:#29ABE2"/>
		<stop  offset="1" style="stop-color:#0071BC"/>
	</linearGradient>
	<circle style="fill:#FFFFFF;stroke:url(#SVGID_1_);stroke-miterlimit:10;" cx="48" cy="48" r="35"/>
	<g>
		<g>
			<linearGradient id="SVGID_2_" gradientUnits="userSpaceOnUse" x1="35.2308" y1="52.8946" x2="37.9048" y2="52.8946">
				<stop  offset="1.006390e-07" style="stop-color:#25A9E0"/>
				<stop  offset="1" style="stop-color:#1B75BB"/>
			</linearGradient>
			<rect x="35.2" y="46.1" style="fill:url(#SVGID_2_);" width="2.7" height="13.6"/>
			<g>
				<linearGradient id="SVGID_3_" gradientUnits="userSpaceOnUse" x1="30.0588" y1="36.3286" x2="65.9413" y2="36.3286">
					<stop  offset="1.006390e-07" style="stop-color:#25A9E0"/>
					<stop  offset="1" style="stop-color:#1B75BB"/>
				</linearGradient>
				<polygon style="fill:url(#SVGID_3_);" points="65.9,42.4 48.1,30.2 30.1,42.4 				"/>
				<linearGradient id="SVGID_4_" gradientUnits="userSpaceOnUse" x1="42.8744" y1="52.8946" x2="45.5484" y2="52.8946">
					<stop  offset="1.006390e-07" style="stop-color:#25A9E0"/>
					<stop  offset="1" style="stop-color:#1B75BB"/>
				</linearGradient>
				<rect x="42.9" y="46.1" style="fill:url(#SVGID_4_);" width="2.7" height="13.6"/>
				<linearGradient id="SVGID_5_" gradientUnits="userSpaceOnUse" x1="50.518" y1="52.8946" x2="53.192" y2="52.8946">
					<stop  offset="1.006390e-07" style="stop-color:#25A9E0"/>
					<stop  offset="1" style="stop-color:#1B75BB"/>
				</linearGradient>
				<rect x="50.5" y="46.1" style="fill:url(#SVGID_5_);" width="2.7" height="13.6"/>
				<linearGradient id="SVGID_6_" gradientUnits="userSpaceOnUse" x1="58.1616" y1="52.8946" x2="60.8357" y2="52.8946">
					<stop  offset="1.006390e-07" style="stop-color:#25A9E0"/>
					<stop  offset="1" style="stop-color:#1B75BB"/>
				</linearGradient>
				<rect x="58.2" y="46.1" style="fill:url(#SVGID_6_);" width="2.7" height="13.6"/>
				<linearGradient id="SVGID_7_" gradientUnits="userSpaceOnUse" x1="31.2643" y1="62.0523" x2="64.7345" y2="62.0523">
					<stop  offset="1.006390e-07" style="stop-color:#25A9E0"/>
					<stop  offset="1" style="stop-color:#1B75BB"/>
				</linearGradient>
				<rect x="31.3" y="60.8" style="fill:url(#SVGID_7_);" width="33.5" height="2.5"/>
				<linearGradient id="SVGID_8_" gradientUnits="userSpaceOnUse" x1="31.2643" y1="44.3227" x2="64.7345" y2="44.3227">
					<stop  offset="1.006390e-07" style="stop-color:#25A9E0"/>
					<stop  offset="1" style="stop-color:#1B75BB"/>
				</linearGradient>
				<rect x="31.3" y="43.5" style="fill:url(#SVGID_8_);" width="33.5" height="1.6"/>
				<linearGradient id="SVGID_9_" gradientUnits="userSpaceOnUse" x1="28.2809" y1="64.9758" x2="67.7191" y2="64.9758">
					<stop  offset="1.006390e-07" style="stop-color:#25A9E0"/>
					<stop  offset="1" style="stop-color:#1B75BB"/>
				</linearGradient>
				<rect x="28.3" y="64.2" style="fill:url(#SVGID_9_);" width="39.4" height="1.6"/>
			</g>
		</g>
		<g>
			<circle style="fill:#FFFFFF;" cx="48" cy="36.5" r="3.6"/>
			<linearGradient id="SVGID_10_" gradientUnits="userSpaceOnUse" x1="46.6053" y1="36.4946" x2="49.395" y2="36.4946">
				<stop  offset="1.006390e-07" style="stop-color:#25A9E0"/>
				<stop  offset="1" style="stop-color:#1B75BB"/>
			</linearGradient>
			<path style="fill:url(#SVGID_10_);" d="M49.1,38.1c-0.2,0.2-0.5,0.4-0.9,0.4V39h-0.4v-0.5c-0.3,0-0.6-0.2-0.8-0.4
				c-0.2-0.2-0.3-0.5-0.4-0.9l0.7-0.1c0,0.2,0.1,0.3,0.2,0.4c0.1,0.1,0.2,0.2,0.3,0.2v-1.2c-0.4-0.1-0.6-0.3-0.8-0.5
				c-0.2-0.2-0.3-0.5-0.3-0.8c0-0.3,0.1-0.6,0.3-0.8c0.2-0.2,0.5-0.3,0.8-0.4v-0.3h0.4v0.3c0.3,0,0.5,0.1,0.7,0.3
				c0.2,0.2,0.3,0.4,0.3,0.7l-0.7,0.1c0-0.2-0.2-0.4-0.3-0.5V36c0.5,0.1,0.8,0.3,0.9,0.5c0.2,0.2,0.2,0.4,0.2,0.8
				C49.4,37.6,49.3,37.8,49.1,38.1z"/>
			<path style="fill:#FFFFFF;" d="M47.4,35.3c0,0.1,0,0.2,0.1,0.3c0.1,0.1,0.2,0.2,0.3,0.2v-1c-0.1,0-0.2,0.1-0.3,0.2
				C47.5,35.1,47.4,35.2,47.4,35.3z"/>
			<path style="fill:#FFFFFF;" d="M48.2,36.8v1.1c0.1,0,0.3-0.1,0.3-0.2c0.1-0.1,0.1-0.2,0.1-0.4c0-0.1,0-0.2-0.1-0.3
				C48.5,36.9,48.4,36.8,48.2,36.8z"/>
		</g>
	</g>
</g>
</svg>
