<?xml version="1.0" encoding="utf-8"?>
<!-- Generator: Adobe Illustrator 21.1.0, SVG Export Plug-In . SVG Version: 6.00 Build 0)  -->
<svg version="1.1" id="Layer_1" xmlns="http://www.w3.org/2000/svg" xmlns:xlink="http://www.w3.org/1999/xlink" x="0px" y="0px"
	 width="96px" height="96px" viewBox="0 0 96 96" style="enable-background:new 0 0 96 96;" xml:space="preserve">
<title>insurance-terms-conditions-icon</title>
<g>
	<path style="fill:#263950;" d="M77.8,23.4L65,9.8l-0.3-0.2H18.9c-0.3,0-0.5,0.1-0.7,0.3c-0.2,0.2-0.3,0.4-0.3,0.7v74.8
		c0,0.6,0.4,1,1,1h58.2c0.3,0,0.5-0.1,0.7-0.3c0.2-0.2,0.3-0.4,0.3-0.7V24.1C78.1,23.8,78,23.6,77.8,23.4z M65.3,13.1l9.5,10.3h-9.5
		V13.1z M19.9,11.6h43.5v12.9c0,0.6,0.4,1,1,1h11.8v49.8H19.9V11.6z M76.1,84.4H19.9v-7h56.3L76.1,84.4L76.1,84.4z"/>
	<g>
		<path style="fill:#263950;" d="M31.9,56.3h-0.8V50h-2.2v-0.7h5.2V50h-2.2V56.3z"/>
		<path style="fill:#263950;" d="M37.3,56.4c-0.7,0.1-1.3-0.2-1.8-0.7c-0.5-0.6-0.7-1.3-0.7-2c0-0.7,0.2-1.4,0.6-2
			c0.4-0.5,1.1-0.7,1.7-0.7c0.6,0,1.2,0.2,1.6,0.6c0.4,0.5,0.6,1.1,0.6,1.7v0.5h-3.6c0,0.5,0.2,1,0.5,1.4c0.3,0.3,0.7,0.5,1.2,0.5
			c0.6,0,1.2-0.1,1.7-0.4V56l-0.8,0.3L37.3,56.4z M37.1,51.7c-0.4,0-0.7,0.1-1,0.4c-0.2,0.3-0.4,0.7-0.4,1.1h2.7
			c0-0.4-0.1-0.8-0.3-1.2C37.9,51.7,37.5,51.7,37.1,51.7z"/>
		<path style="fill:#263950;" d="M42.9,51h0.6v0.7h-0.6c-0.4,0-0.8,0.2-1.1,0.5c-0.3,0.4-0.5,0.8-0.5,1.3v2.8h-0.8v-5.2h0.7v1l0,0
			c0.2-0.3,0.4-0.6,0.7-0.8L42.9,51z"/>
		<path style="fill:#263950;" d="M51.2,56.3v-3.4c0-0.3-0.1-0.7-0.3-0.9c-0.2-0.2-0.5-0.3-0.8-0.3c-0.4-0.1-0.8,0.1-1.1,0.4
			c-0.3,0.4-0.4,0.8-0.4,1.3v2.9h-0.8v-3.4c0-0.3-0.1-0.7-0.3-0.9c-0.2-0.2-0.5-0.3-0.8-0.3c-0.4-0.1-0.8,0.1-1.1,0.4
			c-0.2,0.5-0.3,1-0.3,1.5v2.8h-0.8v-5.2h0.6v0.7l0,0c0.1-0.3,0.3-0.5,0.6-0.6l0.9-0.2c0.7-0.1,1.3,0.3,1.6,0.9l0,0l0.7-0.7
			c0.3-0.2,0.7-0.2,1-0.2c0.5,0,1,0.2,1.3,0.5c0.3,0.4,0.5,1,0.4,1.5v3.4h-0.5L51.2,56.3z"/>
		<path style="fill:#263950;" d="M57.1,54.9c0,0.4-0.2,0.8-0.5,1.1c-0.4,0.3-1,0.4-1.5,0.4c-0.5,0-1.1-0.1-1.6-0.3v-0.7l0.8,0.3h0.8
			l1-0.2c0.2-0.1,0.3-0.4,0.3-0.6c0-0.2-0.1-0.4-0.3-0.5l-1-0.5c-0.4-0.1-0.7-0.3-1-0.5c-0.2-0.1-0.4-0.3-0.5-0.5
			c-0.1-0.2-0.2-0.4-0.2-0.6c0-0.4,0.2-0.8,0.5-1c0.4-0.3,0.9-0.4,1.4-0.4c0.6,0,1.2,0.1,1.7,0.3l-0.3,0.7l-1.4-0.3l-0.9,0.2
			c-0.2,0.1-0.3,0.3-0.3,0.5c0,0.1,0,0.3,0.1,0.4l0.3,0.3l0.9,0.4c0.5,0.2,0.9,0.4,1.3,0.7C57,54.3,57.1,54.6,57.1,54.9z"/>
		<path style="fill:#263950;" d="M60.6,54.5c0-0.4,0.1-0.8,0.3-1.1c0.3-0.4,0.7-0.7,1.2-1l-0.6-0.7c-0.1-0.2-0.2-0.3-0.2-0.5
			s-0.1-0.3-0.1-0.5c0-0.4,0.2-0.8,0.5-1.1c0.4-0.3,0.8-0.5,1.3-0.4c0.4,0,0.9,0.1,1.2,0.4c0.3,0.3,0.4,0.7,0.4,1.1
			c0,0.3-0.1,0.6-0.3,0.9c-0.3,0.4-0.7,0.7-1.1,0.9l1.9,1.9c0.2-0.2,0.3-0.4,0.4-0.7l0.3-0.9h0.8c-0.1,0.8-0.5,1.5-1,2.1l1.4,1.4
			h-1.1L65,55.4l-1.1,0.7l-1.3,0.2c-0.6,0-1.1-0.2-1.6-0.5C60.7,55.4,60.6,55,60.6,54.5z M62.8,55.7c0.7,0,1.4-0.2,1.9-0.7l-2.1-2
			l-0.8,0.5c-0.2,0.1-0.3,0.3-0.3,0.5c0,0.2-0.1,0.3-0.1,0.6c0,0.3,0.1,0.7,0.4,0.9L62.8,55.7z M62,50.7c0,0.2,0.1,0.4,0.2,0.6
			l0.6,0.7c0.3-0.2,0.6-0.4,0.9-0.7c0.2-0.2,0.2-0.4,0.2-0.7c0-0.2-0.1-0.4-0.2-0.6c-0.2-0.2-0.4-0.2-0.7-0.2L62.3,50
			C62.1,50.2,62,50.4,62,50.7z"/>
	</g>
	<g>
		<path style="fill:#263950;" d="M27.4,64c-0.7,0-1.4,0.3-1.8,0.8c-0.9,1.2-0.9,2.9-0.1,4.2c0.5,0.5,1.1,0.8,1.8,0.7l1.7-0.3v0.7
			c-0.6,0.2-1.2,0.3-1.8,0.3c-0.9,0-1.8-0.3-2.4-0.9c-0.6-0.8-0.9-1.7-0.8-2.7c0-0.7,0.1-1.3,0.4-1.9c0.3-0.5,0.7-1,1.2-1.3
			c0.6-0.3,1.2-0.4,1.8-0.4c0.7,0,1.3,0.1,1.9,0.4L29,64.3L27.4,64z"/>
		<path style="fill:#263950;" d="M35,67.7c0,0.7-0.2,1.4-0.6,2c-0.8,0.8-2,0.9-3,0.4c-0.4-0.2-0.6-0.5-0.8-0.9
			c-0.2-0.4-0.3-0.9-0.3-1.4c0-0.7,0.2-1.4,0.6-2c0.5-0.5,1.1-0.8,1.8-0.7c0.6,0,1.3,0.2,1.7,0.7C34.8,66.3,35,67,35,67.7z M31,67.7
			c-0.1,0.5,0.1,1.1,0.4,1.5c0.7,0.7,1.7,0.7,2.4,0c0.3-0.4,0.5-1,0.4-1.5c0.1-0.5-0.1-1.1-0.4-1.5c-0.7-0.7-1.7-0.7-2.4,0
			C31.1,66.6,30.9,67.2,31,67.7z"/>
		<path style="fill:#263950;" d="M40,70.3v-3.4c0-0.4-0.1-0.7-0.3-1c-0.2-0.2-0.6-0.3-0.9-0.3c-0.4-0.1-0.9,0.1-1.2,0.4
			c-0.3,0.4-0.5,1-0.4,1.5v2.8h-0.8v-5.2H37v0.7l0,0c0.2-0.3,0.4-0.5,0.7-0.6l1-0.2c0.5,0,1,0.2,1.4,0.5c0.4,0.4,0.5,1,0.5,1.5v3.4
			L40,70.3L40,70.3z"/>
		<path style="fill:#263950;" d="M46,69.6L46,69.6c-0.4,0.5-1,0.8-1.7,0.8c-0.6,0-1.2-0.2-1.6-0.7c-0.8-1.2-0.8-2.8,0-4
			c0.4-0.5,1-0.7,1.6-0.7c0.6,0,1.2,0.3,1.6,0.8H46v-2.9h0.8v7.4h-0.6L46,69.6z M44.4,69.8c0.4,0,0.9-0.1,1.2-0.4
			C45.9,69,46,68.5,46,68v-0.2c0.1-0.6-0.1-1.1-0.4-1.6c-0.3-0.3-0.7-0.5-1.2-0.5c-0.4,0-0.8,0.2-1.1,0.5c-0.3,0.4-0.5,1-0.4,1.5
			c-0.1,0.5,0.1,1.1,0.4,1.5C43.5,69.6,43.9,69.8,44.4,69.8z"/>
		<path style="fill:#263950;" d="M48.3,63.7c0-0.2,0-0.3,0.1-0.4H49c0.1,0.1,0.1,0.2,0.1,0.4s0,0.3-0.1,0.4h-0.6
			C48.4,64,48.3,63.9,48.3,63.7z M49.2,70.3h-0.8v-5.2h0.8V70.3z"/>
		<path style="fill:#263950;" d="M52.6,69.8h0.7v0.6h-0.9c-1,0-1.5-0.5-1.5-1.6v-3.1h-0.8v-0.4l0.8-0.3l0.3-1.1h0.5v1.2h1.5v0.6
			h-1.5v3.1c0,0.2,0.1,0.5,0.2,0.7C52.1,69.7,52.3,69.8,52.6,69.8z"/>
		<path style="fill:#263950;" d="M54.3,63.7c0-0.2,0-0.3,0.1-0.4H55c0.1,0.1,0.1,0.2,0.1,0.4s0,0.3-0.1,0.4h-0.6
			C54.3,64,54.3,63.9,54.3,63.7z M55.1,70.3h-0.8v-5.2h0.8V70.3z"/>
		<path style="fill:#263950;" d="M61.3,67.7c0,0.7-0.2,1.4-0.6,2c-0.8,0.8-2,0.9-3,0.4c-0.4-0.2-0.6-0.5-0.8-0.9
			c-0.2-0.4-0.3-0.9-0.3-1.4c0-0.7,0.2-1.4,0.6-2c0.5-0.5,1.1-0.8,1.8-0.7c0.6,0,1.3,0.2,1.7,0.7C61.1,66.3,61.3,67,61.3,67.7z
			 M57.3,67.7c-0.1,0.5,0.1,1.1,0.4,1.5c0.3,0.4,0.7,0.6,1.2,0.5c0.5,0,0.9-0.2,1.2-0.5c0.3-0.4,0.5-1,0.4-1.5
			c0.1-0.5-0.1-1.1-0.4-1.5c-0.7-0.7-1.7-0.7-2.4,0C57.4,66.7,57.3,67.2,57.3,67.7z"/>
		<path style="fill:#263950;" d="M66.3,70.3v-3.4c0-0.4-0.1-0.7-0.3-1c-0.2-0.2-0.6-0.3-0.9-0.3c-0.4-0.1-0.9,0.1-1.2,0.4
			c-0.3,0.5-0.4,1-0.4,1.5v2.8h-0.8v-5.2h0.6v0.7l0,0c0.2-0.3,0.4-0.5,0.7-0.6l1-0.2c0.5,0,1,0.2,1.4,0.5c0.4,0.4,0.6,0.9,0.6,1.5
			v3.4L66.3,70.3L66.3,70.3z"/>
		<path style="fill:#263950;" d="M72.1,68.9c0,0.4-0.2,0.8-0.5,1.1c-0.4,0.3-1,0.4-1.5,0.4c-0.5,0-1.1-0.1-1.6-0.3v-0.7l0.8,0.3h0.8
			l1-0.2c0.2-0.1,0.3-0.4,0.3-0.6c0-0.2-0.1-0.4-0.3-0.5l-1-0.5l-1-0.5l-0.5-0.5c-0.1-0.2-0.2-0.4-0.2-0.6c0-0.4,0.2-0.8,0.5-1
			c0.4-0.3,0.9-0.4,1.4-0.4c0.6,0,1.2,0.1,1.7,0.3l-0.3,0.7l-1.4-0.3l-0.9,0.2c-0.2,0.1-0.3,0.3-0.3,0.5c0,0.1,0,0.3,0.1,0.4
			l0.3,0.3l0.9,0.4c0.5,0.2,0.9,0.4,1.3,0.7C72,68.3,72.1,68.6,72.1,68.9z"/>
	</g>
	
		<line style="fill:none;stroke:#263950;stroke-width:1.96;stroke-linecap:round;stroke-linejoin:round;" x1="26.4" y1="43.5" x2="69.6" y2="43.5"/>
	<polygon style="fill:#263950;" points="48.4,21.4 48.4,30 51.4,27.1 52,27.7 48,31.7 44,27.7 44.6,27.1 47.6,30 47.6,21.4 40,21.4 
		40,37.4 56,37.4 56,21.4 	"/>
	<rect x="47.6" y="17.2" style="fill:#263950;" width="0.8" height="4.2"/>
</g>
</svg>
